<svg xmlns="http://www.w3.org/2000/svg" width="300" height="281" viewBox="0 0 300 281">
  <g id="Group_2" data-name="Group 2" transform="translate(-356 -1296)">
    <g id="Group_1" data-name="Group 1" transform="translate(-251 952)">
      <g id="k2io-logo" transform="translate(607 625)">
        <path id="Path_1" data-name="Path 1" d="M0-140.5V0H300V-281H0Zm233-120c11,2.8,18.9,7.2,26.1,14.4,10.8,10.9,15.6,24.1,14.6,40.6-1.3,21.5-7.2,30.2-55.9,83.1-8.7,9.5-15.8,17.5-15.8,17.8s17.3.6,38.5.6H279v29H154.1L142.9-90l-11.1-15.1-4.2,3.5-4.2,3.4-17.8-23.4L87.7-145l-10,13.5L67.6-118l-2-3.5c-1.1-2-2.3-3.4-2.7-3.3-.3.2-9.6,11.3-20.5,24.8L22.5-75.5l-.3-90c-.1-49.5,0-90.6.3-91.3.3-.9,5.3-1.2,20-1.2H62l.2,41.4.3,41.4,26.9-41.4L116.3-258h23.4c12.8,0,23.3.2,23.3.5s-12.4,19.2-27.6,42l-27.7,41.4L130-137c12.3,20.4,22.7,36.9,23,36.8,2-.8,64.1-68.4,69.5-75.6,11.6-15.5,15.6-26.7,13.6-37.9-1.5-7.9-5.2-13.7-10.9-17-4.1-2.4-5.7-2.8-12.7-2.8-6.3,0-8.9.5-12.2,2.3-7.4,3.9-12,12-13,23l-.6,6.2-18.1-.2-18.1-.3-.3-3.6c-.5-5.5,2.4-17.7,5.9-24.7,5.6-11.5,18-22.7,30.1-27.4C199-263.1,219.1-264.1,233-260.5ZM37.8-48.4A8.9,8.9,0,0,1,40-43.9c0,2.8-4.2,2.5-5.5-.3-1.2-2.7-4.4-3.6-5.6-1.6-1.5,2.4-1.1,15.4.6,16.8,1.9,1.6,4.5.6,5.2-2a2.685,2.685,0,0,1,2.9-2c3,0,3.2,2.7.3,6.4-2.7,3.5-8.6,3.6-12.5.2-2.4-2-2.8-3.2-3.2-8.9-.6-8.6,1.1-13.5,5.2-15.3C31.4-52.3,34.9-51.6,37.8-48.4ZM144.1-51c1.7,0,4.9,4,4.9,6,0,2.8-4.6,2.8-5.3-.1-.8-2.9-5.1-2.2-5.5.8-.3,1.8.7,2.7,4.8,4.8,5.4,2.8,7.4,5.9,6.4,10.1-.9,3.3-4.1,5.4-8.6,5.4-6.6,0-12.7-8.1-6.5-8.8,1.8-.2,2.7.1,2.7,1.1,0,2.2,2.7,3.9,5,3.2,3.1-1,2.5-4.3-1.1-6.3-6-3.2-8.9-6.2-8.9-9.1,0-4.2,5.8-8.6,9.8-7.5A12.361,12.361,0,0,0,144.1-51Zm41.7,2.7a8.29,8.29,0,0,1,2.2,4.4c0,2.8-4.2,2.5-5.5-.3-1.2-2.7-4.4-3.6-5.6-1.6-1.3,2-1.1,15.2.3,16.6,1.9,1.9,3.7,1.4,5-1.3a3.718,3.718,0,0,1,3.5-2.5c3.1,0,3.1,3.3-.2,6.5-3.2,3.3-8.4,3.3-12.1.1-2.4-2-2.8-3.2-3.2-8.9-.6-8.6,1.1-13.5,5.2-15.2A8.47,8.47,0,0,1,185.8-48.3ZM49.3-45.2l2,5.4,2.2-5.4c1.7-4.4,2.6-5.4,4.8-5.6,1.5-.2,2.7.1,2.7.6a69.977,69.977,0,0,1-3.5,8.6C55-36.1,54-32.5,54-28.9c0,4.9-.1,5-2.7,4.7s-2.7-.6-2.5-4.3a20.8,20.8,0,0,0-1.7-8.8c-1.2-2.6-3-6.8-4.1-9.3l-2-4.5,3.2.3C46.9-50.5,47.5-49.9,49.3-45.2Zm28.5-4.2C79.4-48.3,80-46.9,80-44c0,2.1-.5,4.2-1,4.5-.7.4-.5,1.4.5,2.8a8.112,8.112,0,0,1-.4,9.8c-1.7,2.1-2.8,2.4-8.8,2.4H63.5l-.3-13.3L62.9-51h6.3C73.3-51,76.3-50.5,77.8-49.4ZM100-49c0,1.7-.7,2-5,2H90v3.5C90-40,90-40,94.5-40c3.8,0,4.5.3,4.5,2s-.7,2-4.5,2C90-36,90-36,90-32.5V-29h5c4.7,0,5,.2,5,2.5,0,2.6,0,2.6-7.7,2.3l-7.8-.3-.3-13.3L83.9-51H92C99.3-51,100-50.8,100-49Zm17.4.1c3,2.4,3.6,7.8,1.1,9.9-1.3,1.1-1.4,1.5-.2,2.9.8.9,1.7,4,2,6.9.6,5.3.6,5.3-2.1,5-2.4-.3-2.7-.8-3-4.3-.4-4.8-1.7-6.5-4.8-6.5-2.2,0-2.4.4-2.4,5.5,0,5.2-.1,5.5-2.5,5.5H103V-51h5.9C113.3-51,115.4-50.5,117.4-48.9Zm51.4.1c.3,1.5-.5,1.8-5.2,1.8H158v3.5c0,3.5,0,3.5,4.5,3.5,3.8,0,4.5.3,4.5,2s-.7,2-4.5,2c-4.5,0-4.5,0-4.5,3.4v3.5l5.3.3c4.4.3,5.2.6,5.2,2.3,0,1.8-.7,2-8,2h-8l-.3-13.3-.3-13.3,8.3.3c7,.3,8.3.6,8.6,2ZM196-40.6c0,11.1.9,13.4,5,12.1,1.9-.6,2-1.4,2-11.6V-51h6v10.1c0,10-.8,13.2-3.9,15.6-2.5,2-8.5,1.5-11.5-.8-2.5-2-2.6-2.3-2.6-13.5V-51h5Zm31.5-7.9c2.9,2.8,3.2,6.1.9,9.3-1.4,2-1.4,2.4,0,3.8.9.8,1.6,3,1.6,4.9a19.691,19.691,0,0,0,.6,4.9c.5,1.2-.1,1.6-2.4,1.6-2.9,0-3.1-.3-3.9-5.3-.7-4.7-1.1-5.2-3.6-5.5-2.7-.3-2.7-.3-2.7,5.3s0,5.6-2.7,5.3l-2.8-.3-.3-13.3L211.9-51h6.6C224.2-51,225.4-50.7,227.5-48.5Zm11.5,11V-24h-5V-51h5Zm20-11.6c0,1.4-.8,2.1-2.7,2.3l-2.8.3-.3,11.2c-.3,11.3-.3,11.3-2.7,11.3H248V-47h-3c-2.3,0-3-.4-3-2,0-1.8.7-2,8.5-2C258.2-51,259-50.8,259-49.1Zm8.6,3.1c1,2.7,2.1,5,2.4,5s1.4-2.3,2.4-5c1.6-4.4,2.1-5,4.7-5,1.6,0,2.9.2,2.9.4s-1.4,3.5-3.2,7.3a42.47,42.47,0,0,0-3.7,12.8c-.6,5.6-.8,6-3.3,6.3-2.8.3-2.8.2-2.8-5.1,0-4.1-.9-7.4-3.5-13.1-1.9-4.3-3.5-7.9-3.5-8.2,0-.2,1.3-.4,2.9-.4C265.5-51,266-50.4,267.6-46Z" fill="#3265cd"/>
        <path id="Path_2" data-name="Path 2" d="M69-43.6c0,3.2.3,3.6,2.5,3.6,4.7,0,4.4-6.1-.4-6.8C69.3-47.1,69-46.7,69-43.6Z" fill="#3265cd"/>
        <path id="Path_3" data-name="Path 3" d="M69-32.5c0,3.2.2,3.5,2.9,3.5,2.1,0,3.2-.6,3.6-2,.9-2.7-1.1-5-4.1-5C69.3-36,69-35.5,69-32.5Z" fill="#3265cd"/>
        <path id="Path_4" data-name="Path 4" d="M108-43c0,3.5.3,4,2.4,4a5.4,5.4,0,0,0,3.6-1.5c2-2.4-.3-6.5-3.5-6.5C108.2-47,108-46.6,108-43Z" fill="#3265cd" stroke="#3265cd" stroke-width="1"/>
        <path id="Path_5" data-name="Path 5" d="M218-42.9c0,3.8.1,4,2.8,3.7,2.1-.2,2.8-.9,3-3.2.4-3-1-4.6-4-4.6C218.4-47,218-46.1,218-42.9Z" fill="#3265cd"/>
      </g>
    </g>
  </g>
</svg>
